<svg width="747" height="396" viewBox="0 0 747 396" fill="none" xmlns="http://www.w3.org/2000/svg">
<g clip-path="url(#clip0_164_183)">
<path d="M412.687 2H73.2703C36.118 2 6 32.1366 6 69.312V128.939C6 166.114 36.118 196.251 73.2703 196.251H412.687C449.839 196.251 479.957 166.114 479.957 128.939V69.312C479.957 32.1366 449.839 2 412.687 2Z" fill="#EFF400"/>
<path d="M412.555 4.0208C448.676 4.0208 477.957 33.3202 477.957 69.463V129.09C477.957 165.233 448.676 194.532 412.555 194.532H73.139C37.0185 194.532 7.73724 165.233 7.73724 129.09V69.463C7.73724 33.3202 37.0185 4.0208 73.139 4.0208H412.555ZM412.555 0.28125H73.139C35.0191 0.28125 4 31.3195 4 69.463V129.09C4 167.234 35.0191 198.272 73.139 198.272H412.555C450.675 198.272 481.694 167.234 481.694 129.09V69.463C481.694 31.3195 450.675 0.28125 412.555 0.28125Z" fill="black"/>
<path d="M159.583 183.537H572.81C609.939 183.537 640.08 213.697 640.08 250.849V310.476C640.08 347.629 609.939 377.788 572.81 377.788H159.583C122.453 377.788 92.3125 347.629 92.3125 310.476V250.849C92.3125 213.697 122.453 183.537 159.583 183.537Z" fill="#EFF400"/>
<path d="M572.366 185.758C608.486 185.758 637.768 215.058 637.768 251.2V310.828C637.768 346.97 608.486 376.27 572.366 376.27H159.158C123.037 376.27 93.7559 346.97 93.7559 310.828V251.2C93.7559 215.058 123.037 185.758 159.158 185.758H572.385M572.385 182H159.158C121.038 182 90 213.038 90 251.2V310.828C90 348.971 121.019 380.028 159.158 380.028H572.385C610.504 380.028 641.542 348.99 641.542 310.828V251.2C641.542 213.057 610.523 182 572.385 182Z" fill="black"/>
<path d="M110.925 337.999C105.935 359.464 93.3969 379.097 76 392.634C106.627 397.869 139.346 389.212 163.395 369.523" fill="#EFF400"/>
<path d="M110.925 337.999C105.935 359.464 93.3969 379.097 76 392.634C106.627 397.869 139.346 389.212 163.395 369.523" stroke="black" stroke-width="4.18339" stroke-miterlimit="10" stroke-linecap="round"/>
<path d="M101.242 145H80.791V71.2454H63.5069V52.6418H118.526V71.2454H101.242V145ZM174.348 145L170.39 129.035H141.627L137.537 145H116.69L137.273 71.9051C139.296 64.8682 141.715 59.7666 144.53 56.6C147.432 53.3455 151.61 51.7182 157.064 51.7182C162.254 51.7182 166.344 53.3455 169.334 56.6C172.325 59.8545 174.7 64.8682 176.459 71.6412L196.25 145H174.348ZM156.404 72.037L146.245 111.487H166.036L156.404 72.037ZM291.112 51.7182C296.126 51.7182 300.304 53.4334 303.646 56.8639C306.989 60.2063 308.66 64.7803 308.66 70.5857V145H289.529V71.2454L274.224 130.487C271.585 140.778 266.131 145.924 257.863 145.924C253.553 145.924 250.035 144.648 247.308 142.097C244.581 139.459 242.558 135.588 241.239 130.487L225.934 72.1689V145H206.802V70.5857C206.802 64.7803 208.474 60.2063 211.816 56.8639C215.159 53.4334 219.337 51.7182 224.35 51.7182C233.762 51.7182 239.875 57.5236 242.69 69.1343L257.731 126.396L272.377 69.1343C273.784 63.5049 276.071 59.1948 279.238 56.2042C282.492 53.2135 286.45 51.7182 291.112 51.7182ZM370.583 146.583C361.611 146.583 353.386 144.472 345.91 140.25C338.433 135.94 332.496 130.135 328.098 122.834C323.7 115.445 321.501 107.441 321.501 98.8209C321.501 90.2008 323.7 82.2404 328.098 74.9397C332.496 67.551 338.433 61.7457 345.91 57.5236C353.474 53.2135 361.699 51.0585 370.583 51.0585C379.466 51.0585 387.647 53.2135 395.123 57.5236C402.688 61.8336 408.669 67.683 413.067 75.0716C417.465 82.3723 419.664 90.2887 419.664 98.8209C419.664 107.441 417.465 115.445 413.067 122.834C408.669 130.135 402.732 135.94 395.255 140.25C387.779 144.472 379.554 146.583 370.583 146.583ZM370.583 126.924C375.684 126.924 380.258 125.693 384.304 123.23C388.438 120.679 391.649 117.293 393.936 113.07C396.311 108.76 397.498 104.011 397.498 98.8209C397.498 93.6312 396.311 88.9254 393.936 84.7033C391.649 80.3932 388.438 77.0067 384.304 74.5439C380.258 71.993 375.684 70.7176 370.583 70.7176C365.481 70.7176 360.863 71.993 356.729 74.5439C352.683 77.0067 349.472 80.3932 347.097 84.7033C344.81 88.9254 343.667 93.6312 343.667 98.8209C343.667 104.011 344.81 108.76 347.097 113.07C349.472 117.293 352.683 120.679 356.729 123.23C360.863 125.693 365.481 126.924 370.583 126.924Z" fill="black"/>
<path d="M150.375 327.792V309.056H152.222C156.796 309.056 160.051 308.22 161.986 306.549C164.009 304.878 165.02 301.887 165.02 297.577V234.642H185.603V296.126C185.603 307.561 182.788 315.697 177.159 320.535C171.617 325.373 163.349 327.792 152.354 327.792H150.375ZM234.774 328.583C228.002 328.583 222.108 327.088 217.094 324.097C212.169 321.107 208.386 316.929 205.748 311.563C203.109 306.197 201.789 300.04 201.789 293.091V234.642H222.24V295.598C222.24 299.82 223.296 303.251 225.407 305.89C227.518 308.528 230.64 309.848 234.774 309.848C238.909 309.848 241.987 308.528 244.01 305.89C246.121 303.251 247.177 299.82 247.177 295.598V234.642H267.76V293.091C267.76 300.04 266.44 306.197 263.801 311.563C261.163 316.929 257.336 321.107 252.323 324.097C247.397 327.088 241.547 328.583 234.774 328.583ZM313.288 328.583C303.525 328.583 295.74 325.944 289.935 320.667C284.217 315.301 281.051 307.781 280.435 298.105H301.15C301.502 302.327 302.777 305.538 304.976 307.737C307.175 309.936 309.99 311.035 313.42 311.035C316.587 311.035 319.05 310.156 320.809 308.396C322.656 306.637 323.58 304.438 323.58 301.799C323.58 299.512 323.052 297.621 321.996 296.126C320.941 294.631 319.138 293.355 316.587 292.3C314.124 291.156 310.561 289.969 305.9 288.737C289.451 284.339 281.227 275.103 281.227 261.03C281.227 255.576 282.502 250.738 285.053 246.516C287.692 242.206 291.342 238.908 296.004 236.621C300.666 234.246 306.032 233.058 312.101 233.058C321.425 233.058 328.769 235.653 334.135 240.843C339.588 245.945 342.667 253.201 343.371 262.613H322.788C322.7 258.831 321.644 255.884 319.621 253.773C317.598 251.662 315.091 250.607 312.101 250.607C309.198 250.607 306.779 251.442 304.844 253.113C302.997 254.785 302.073 256.94 302.073 259.578C302.073 261.69 302.601 263.405 303.657 264.724C304.712 266.044 306.383 267.231 308.67 268.287C310.957 269.254 314.432 270.398 319.094 271.717C326.57 273.916 332.683 277.434 337.433 282.272C342.183 287.11 344.558 293.003 344.558 299.952C344.558 308.924 341.699 315.961 335.982 321.063C330.353 326.076 322.788 328.583 313.288 328.583ZM387.57 327H367.119V253.245H349.835V234.642H404.854V253.245H387.57V327ZM457.454 328.583C448.482 328.583 440.257 326.472 432.781 322.25C425.304 317.94 419.367 312.135 414.969 304.834C410.571 297.445 408.372 289.441 408.372 280.821C408.372 272.201 410.571 264.24 414.969 256.94C419.367 249.551 425.304 243.746 432.781 239.524C440.345 235.214 448.57 233.058 457.454 233.058C466.338 233.058 474.518 235.214 481.995 239.524C489.559 243.834 495.54 249.683 499.938 257.072C504.336 264.372 506.535 272.289 506.535 280.821C506.535 289.441 504.336 297.445 499.938 304.834C495.54 312.135 489.603 317.94 482.127 322.25C474.65 326.472 466.426 328.583 457.454 328.583ZM457.454 308.924C462.555 308.924 467.129 307.693 471.175 305.23C475.31 302.679 478.52 299.293 480.807 295.07C483.182 290.76 484.37 286.011 484.37 280.821C484.37 275.631 483.182 270.925 480.807 266.703C478.52 262.393 475.31 259.007 471.175 256.544C467.129 253.993 462.555 252.718 457.454 252.718C452.352 252.718 447.734 253.993 443.6 256.544C439.554 259.007 436.343 262.393 433.968 266.703C431.681 270.925 430.538 275.631 430.538 280.821C430.538 286.011 431.681 290.76 433.968 295.07C436.343 299.293 439.554 302.679 443.6 305.23C447.734 307.693 452.352 308.924 457.454 308.924ZM548.178 328.583C538.415 328.583 530.63 325.944 524.825 320.667C519.107 315.301 515.941 307.781 515.325 298.105H536.04C536.391 302.327 537.667 305.538 539.866 307.737C542.065 309.936 544.88 311.035 548.31 311.035C551.477 311.035 553.939 310.156 555.699 308.396C557.546 306.637 558.469 304.438 558.469 301.799C558.469 299.512 557.942 297.621 556.886 296.126C555.831 294.631 554.027 293.355 551.477 292.3C549.014 291.156 545.451 289.969 540.789 288.737C524.341 284.339 516.117 275.103 516.117 261.03C516.117 255.576 517.392 250.738 519.943 246.516C522.582 242.206 526.232 238.908 530.894 236.621C535.556 234.246 540.921 233.058 546.991 233.058C556.314 233.058 563.659 235.653 569.025 240.843C574.478 245.945 577.557 253.201 578.26 262.613H557.678C557.59 258.831 556.534 255.884 554.511 253.773C552.488 251.662 549.981 250.607 546.991 250.607C544.088 250.607 541.669 251.442 539.734 253.113C537.887 254.785 536.963 256.94 536.963 259.578C536.963 261.69 537.491 263.405 538.546 264.724C539.602 266.044 541.273 267.231 543.56 268.287C545.847 269.254 549.322 270.398 553.983 271.717C561.46 273.916 567.573 277.434 572.323 282.272C577.073 287.11 579.448 293.003 579.448 299.952C579.448 308.924 576.589 315.961 570.872 321.063C565.242 326.076 557.678 328.583 548.178 328.583Z" fill="black"/>
</g>
<defs>
<clipPath id="clip0_164_183">
<rect width="747" height="396" fill="white"/>
</clipPath>
</defs>
</svg>
